<?xml version="1.0" encoding="UTF-8"?>
<svg width="15px" height="18px" viewBox="0 0 15 18" version="1.1" xmlns="http://www.w3.org/2000/svg" xmlns:xlink="http://www.w3.org/1999/xlink">
    <!-- Generator: Sketch 50 (54983) - http://www.bohemiancoding.com/sketch -->
    <title>Shape</title>
    <desc>Created with Sketch.</desc>
    <defs></defs>
    <g id="Page-1" stroke="none" stroke-width="1" fill="none" fill-rule="evenodd">
        <g id="корзина" transform="translate(-914.000000, -214.000000)" fill="#000000" fill-rule="nonzero">
            <g id="noun_1802975_cc" transform="translate(914.000000, 214.000000)">
                <g id="Group">
                    <g id="Shape">
                        <path d="M14.0574805,3.18656367 L10.0124805,3.18656367 C9.95130859,1.81352813 8.83714844,0.715673438 7.4761914,0.715673438 C6.11523438,0.715673438 5.00107421,1.81352813 4.93990234,3.18656367 L0.88390625,3.18656367 C0.538730469,3.18656367 0.25890625,3.47198438 0.25890625,3.82406367 C0.25890625,4.17614297 0.538730469,4.46156367 0.88390625,4.46156367 L14.0574805,4.46156367 C14.4026563,4.46156367 14.6824805,4.17614297 14.6824805,3.82406367 C14.6824805,3.47198438 14.4026563,3.18656367 14.0574805,3.18656367 Z M7.4761914,1.99065351 C8.14765625,1.99065351 8.70058594,2.51710898 8.75974609,3.18654375 L6.19265625,3.18654375 C6.2518164,2.51710898 6.80472656,1.99065351 7.4761914,1.99065351 Z M12.4949805,5.73331641 C12.1498047,5.73331641 11.8699805,6.0187371 11.8699805,6.37081641 L11.8699805,15.8969192 L3.13,15.8969192 L3.13,6.37081641 C3.13,6.0187371 2.85017577,5.73331641 2.505,5.73331641 C2.15982421,5.73331641 1.88,6.0187371 1.88,6.37081641 L1.88,16.5344192 C1.88,16.8864984 2.15982421,17.1719192 2.505,17.1719192 L12.4949805,17.1719192 C12.8401563,17.1719192 13.1199805,16.8864984 13.1199805,16.5344192 L13.1199805,6.37081641 C13.1199805,6.0187371 12.8401563,5.73331641 12.4949805,5.73331641 Z M6.27550781,13.3237898 L6.27550781,7.65414375 C6.27550781,7.30206445 5.99568359,7.01664375 5.65050781,7.01664375 C5.30533202,7.01664375 5.02550781,7.30206445 5.02550781,7.65414375 L5.02550781,13.3237699 C5.02550781,13.6758492 5.30533202,13.9612699 5.65050781,13.9612699 C5.99568359,13.9612699 6.27550781,13.6758692 6.27550781,13.3237898 Z M10.0164062,13.3237898 L10.0164062,7.65414375 C10.0164062,7.30206445 9.73658202,7.01664375 9.39140625,7.01664375 C9.04623046,7.01664375 8.76640625,7.30206445 8.76640625,7.65414375 L8.76640625,13.3237699 C8.76640625,13.6758492 9.04623046,13.9612699 9.39140625,13.9612699 C9.73658202,13.9612699 10.0164062,13.6758692 10.0164062,13.3237898 Z"></path>
                    </g>
                </g>
            </g>
        </g>
    </g>
</svg>