<?xml version="1.0" encoding="UTF-8"?>
<svg width="23px" height="19px" viewBox="0 0 23 19" version="1.1" xmlns="http://www.w3.org/2000/svg" xmlns:xlink="http://www.w3.org/1999/xlink">
    <!-- Generator: Sketch 50 (54983) - http://www.bohemiancoding.com/sketch -->
    <title>if_03-twitter_104501</title>
    <desc>Created with Sketch.</desc>
    <defs></defs>
    <g id="Page-1" stroke="none" stroke-width="1" fill="none" fill-rule="evenodd">
        <g id="страница-проекта" transform="translate(-830.000000, -1320.000000)" fill="#FFFFFF" fill-rule="nonzero">
            <g id="Group-4" transform="translate(684.000000, 1248.000000)">
                <g id="if_03-twitter_104501" transform="translate(146.000000, 72.000000)">
                    <path d="M22.2600002,2.14136656 C21.441681,2.50511421 20.561005,2.75047442 19.6369504,2.8602765 C20.580435,2.29545097 21.3038636,1.40076732 21.6450182,0.333472995 C20.7625348,0.857179231 19.7856125,1.23719385 18.744978,1.44233848 C17.9121992,0.554884605 16.7251619,0 15.4116036,0 C12.8897705,0 10.8451021,2.04466843 10.8451021,4.56695334 C10.8451021,4.92437494 10.8853177,5.27275933 10.9634895,5.6075879 C7.16786196,5.4169028 3.8024055,3.5990683 1.54988127,0.83594179 C1.15676269,1.51011755 0.931736201,2.29454725 0.931736201,3.13229648 C0.931736201,4.71651914 1.7378552,6.1145753 2.96330068,6.9333464 C2.21501981,6.90939779 1.51056941,6.7038013 0.894683646,6.36174296 C0.894231786,6.38072109 0.894231786,6.40015109 0.894231786,6.41958109 C0.894231786,8.63188974 2.46851351,10.4772877 4.55791613,10.8975179 C4.17473849,11.0014458 3.77122713,11.0574765 3.35461181,11.0574765 C3.05999881,11.0574765 2.77397116,11.0290093 2.49517328,10.9752379 C3.07671765,12.7894575 4.76306076,14.1102456 6.76118757,14.1468463 C5.19820236,15.3718399 3.22944647,16.1020463 1.08943549,16.1020463 C0.721169242,16.1020463 0.357421598,16.080357 0,16.0378821 C2.02162355,17.3342697 4.42190614,18.0897803 7.0006736,18.0897803 C15.4012108,18.0897803 19.994372,11.1311298 19.994372,5.0960819 C19.994372,4.89816703 19.9903053,4.70070402 19.98172,4.5045966 C20.8736924,3.86205107 21.6481812,3.05728765 22.2600002,2.14136656 Z" id="Shape"></path>
                </g>
            </g>
        </g>
    </g>
</svg>