<?xml version="1.0" encoding="UTF-8"?>
<svg width="20px" height="20px" viewBox="0 0 20 20" version="1.1" xmlns="http://www.w3.org/2000/svg" xmlns:xlink="http://www.w3.org/1999/xlink">
    <!-- Generator: Sketch 50 (54983) - http://www.bohemiancoding.com/sketch -->
    <title>instagram</title>
    <desc>Created with Sketch.</desc>
    <defs></defs>
    <g id="Page-1" stroke="none" stroke-width="1" fill="none" fill-rule="evenodd">
        <g id="menu-category" transform="translate(-184.000000, -660.000000)" fill="#FFFFFF" fill-rule="nonzero">
            <g id="Group" transform="translate(31.000000, 518.000000)">
                <path d="M165.047034,152.167149 C165.047034,151.127731 164.219368,150.281854 163.201618,150.281854 C162.184185,150.281854 161.356201,151.127731 161.356201,152.167149 C161.356201,153.20673 162.184185,154.052444 163.201618,154.052444 C164.219368,154.052444 165.047034,153.20673 165.047034,152.167149 Z M167.647228,152.167149 C167.647228,154.67152 165.652857,156.708664 163.201618,156.708664 C160.750379,156.708664 158.756167,154.67152 158.756167,152.167149 C158.756167,151.477502 158.908138,150.823871 159.178416,150.237727 L153.74237,150.237727 L153.74237,156.781993 C153.74237,159.41842 155.841866,161.563286 158.422528,161.563286 L167.789195,161.563286 C170.369698,161.563286 172.469194,159.41842 172.469194,156.781993 L172.469194,150.237727 L167.224978,150.237727 C167.495256,150.823871 167.647228,151.477502 167.647228,152.167149 Z M167.037753,145.25916 C167.037753,144.966819 167.271507,144.728014 167.557823,144.728014 L169.164404,144.728014 C169.450562,144.728014 169.684634,144.966819 169.684634,145.25916 L169.684634,146.900621 C169.684634,147.192963 169.450562,147.43193 169.164404,147.43193 L167.557823,147.43193 C167.271507,147.43193 167.037753,147.192963 167.037753,146.900621 L167.037753,145.25916 Z M163.201618,147.625635 C164.159977,147.625635 165.047511,147.937931 165.774339,148.466806 L172.469194,148.466806 L172.469194,147.134721 C172.469194,144.498294 170.369698,142.353428 167.789195,142.353428 L158.422528,142.353428 C155.841866,142.353428 153.74237,144.498294 153.74237,147.134721 L153.74237,148.466806 L160.629214,148.466806 C161.355884,147.937931 162.243418,147.625635 163.201618,147.625635 Z" id="instagram"></path>
            </g>
        </g>
    </g>
</svg>