<?xml version="1.0" encoding="UTF-8"?>
<svg width="11px" height="21px" viewBox="0 0 11 21" version="1.1" xmlns="http://www.w3.org/2000/svg" xmlns:xlink="http://www.w3.org/1999/xlink">
    <!-- Generator: Sketch 50 (54983) - http://www.bohemiancoding.com/sketch -->
    <title>facebook</title>
    <desc>Created with Sketch.</desc>
    <defs></defs>
    <g id="Page-1" stroke="none" stroke-width="1" fill="none" fill-rule="evenodd">
        <g id="menu-category" transform="translate(-143.000000, -660.000000)" fill="#FFFFFF" fill-rule="nonzero">
            <g id="Group" transform="translate(31.000000, 518.000000)">
                <path d="M114.524669,162.65553 L118.919909,162.65553 L118.884175,152.415729 L121.814335,152.415729 L122.185965,148.868518 L118.919909,148.868518 L118.919909,146.706909 C118.919909,146.706909 118.919909,146.131873 119.248658,145.917128 C119.577408,145.702382 119.956185,145.681571 119.956185,145.681571 L122.185965,145.681571 L122.185965,142.13436 C122.185965,142.13436 120.25545,142.13436 119.134311,142.13436 C118.013172,142.13436 116.750205,142.481623 116.111243,142.8826 C114.63187,143.810971 114.524669,146.014122 114.524669,146.014122 L114.524669,148.868518 L112.323475,148.868518 L112.323475,152.37416 L114.524669,152.37416 L114.524669,162.65553 Z" id="facebook"></path>
            </g>
        </g>
    </g>
</svg>