<?xml version="1.0" encoding="UTF-8"?>
<svg width="23px" height="16px" viewBox="0 0 23 16" version="1.1" xmlns="http://www.w3.org/2000/svg" xmlns:xlink="http://www.w3.org/1999/xlink">
    <!-- Generator: Sketch 50 (54983) - http://www.bohemiancoding.com/sketch -->
    <title>vkontakte</title>
    <desc>Created with Sketch.</desc>
    <defs></defs>
    <g id="Page-1" stroke="none" stroke-width="1" fill="none" fill-rule="evenodd">
        <g id="menu-category" transform="translate(-92.000000, -662.000000)" fill="#FFFFFF" fill-rule="nonzero">
            <g id="Group" transform="translate(31.000000, 518.000000)">
                <path d="M61.124899,145.608446 C60.972858,144.681018 65.4580642,145.255226 65.4580642,145.255226 C65.4580642,145.255226 68.0617643,151.791381 69.0880403,151.791381 C70.1143162,151.791381 69.6201834,146.248899 69.6201834,146.248899 C69.6201834,146.248899 68.3468409,145.917674 68.346841,145.409798 C68.346841,144.901921 69.6201834,144.548615 69.6201834,144.548615 C69.6201834,144.548615 72.9155069,144.548615 73.3641902,144.548615 C73.8128734,144.548615 73.9914326,145.277308 73.991433,145.763103 C73.9914335,146.248898 73.991433,151.703054 73.991433,151.703054 L75.017709,151.703054 C75.017709,151.703054 75.9312607,150.235272 76.6520743,148.74412 C77.3728878,147.252967 78.2485036,145.255226 78.2485036,145.255226 L82.6006738,145.255226 C82.6006738,145.255226 83.3988885,145.277135 83.3038629,145.93967 C83.1745886,146.840993 80.2791184,151.121222 79.6738868,152.586232 C79.2177642,153.690313 81.5900151,155.184691 82.6006738,156.781737 C83.2566049,157.818241 83.3038629,159.034147 83.3038629,159.034147 L78.1345471,159.034147 L75.5497779,156.030962 C75.5497779,156.030962 75.017709,155.810233 74.5995223,156.119289 C74.1813357,156.428345 74.1624048,157.046716 74.1624048,157.046716 L74.1624048,159.034147 L70.1143162,159.034147 C70.1143162,159.034147 67.0164832,157.97423 64.393778,153.337093 C61.7710724,148.699957 61.2769399,146.535873 61.124899,145.608446 Z" id="vkontakte"></path>
            </g>
        </g>
    </g>
</svg>