<?xml version="1.0" encoding="UTF-8"?><svg width="490" height="435" viewBox="0 0 490 435" xmlns="http://www.w3.org/2000/svg" xmlns:xlink="http://www.w3.org/1999/xlink"><svg width="23" height="19" viewBox="0 0 23 19" id="L1VzZXJzL2t1a2tvbWFoL3Byb2plY3RzL2l0YWxvbi9zcmMvaW1hZ2VzL3Nwcml0ZS10dy5zdmc=" x="451" y="202" xmlns="http://www.w3.org/2000/svg"><path d="M22.26 2.141a9.087 9.087 0 0 1-2.623.72A4.575 4.575 0 0 0 21.645.332a9.142 9.142 0 0 1-2.9 1.11 4.567 4.567 0 0 0-7.781 4.165A12.967 12.967 0 0 1 1.55.836a4.544 4.544 0 0 0-.618 2.296c0 1.585.806 2.983 2.031 3.801a4.554 4.554 0 0 1-2.068-.571v.058a4.57 4.57 0 0 0 3.663 4.478 4.592 4.592 0 0 1-2.063.077 4.572 4.572 0 0 0 4.266 3.172 9.162 9.162 0 0 1-5.672 1.955c-.368 0-.732-.022-1.089-.064a12.923 12.923 0 0 0 7 2.052c8.401 0 12.994-6.959 12.994-12.994 0-.198-.004-.395-.012-.591A9.25 9.25 0 0 0 22.26 2.14z" fill="#FFF" fill-rule="nonzero"/></svg><svg width="23" height="16" viewBox="0 0 23 16" id="L1VzZXJzL2t1a2tvbWFoL3Byb2plY3RzL2l0YWxvbi9zcmMvaW1hZ2VzL3Nwcml0ZS12ay5zdmc=" x="451" y="221" xmlns="http://www.w3.org/2000/svg"><path d="M.125 1.608c-.152-.927 4.333-.353 4.333-.353s2.604 6.536 3.63 6.536c1.026 0 .532-5.542.532-5.542s-1.273-.331-1.273-.84C7.347.903 8.62.55 8.62.55h3.744c.449 0 .627.728.627 1.214v5.94h1.027s.913-1.468 1.634-2.959c.72-1.491 1.597-3.489 1.597-3.489H21.6s.798.022.703.685c-.13.901-3.025 5.181-3.63 6.646-.456 1.104 1.916 2.599 2.927 4.196.656 1.036.703 2.252.703 2.252h-5.17l-2.584-3.003s-.532-.22-.95.088c-.419.31-.438.928-.438.928v1.987H9.114s-3.098-1.06-5.72-5.697C.77 4.7.277 2.536.124 1.608z" fill="#FFF" fill-rule="nonzero"/></svg><svg width="7" height="5" viewBox="0 0 7 5" id="L1VzZXJzL2t1a2tvbWFoL3Byb2plY3RzL2l0YWxvbi9zcmMvaW1hZ2VzL3Nwcml0ZS1hcnJvdy5zdmc=" x="483" y="46" xmlns="http://www.w3.org/2000/svg"><path d="M.036 1.356L1.291.046 3.5 2.34 5.71.045l1.254 1.311L3.5 4.955z" fill="#000" fill-rule="nonzero"/></svg><svg width="11" height="21" viewBox="0 0 11 21" id="L1VzZXJzL2t1a2tvbWFoL3Byb2plY3RzL2l0YWxvbi9zcmMvaW1hZ2VzL3Nwcml0ZS1mYi5zdmc=" x="477" y="126" xmlns="http://www.w3.org/2000/svg"><path d="M2.525 20.656H6.92l-.036-10.24h2.93l.372-3.547H6.92V4.707s0-.575.329-.79c.328-.215.707-.235.707-.235h2.23V.134H7.134c-1.12 0-2.384.348-3.023.749-1.48.928-1.586 3.131-1.586 3.131V6.87H.323v3.505h2.202v10.282z" fill="#FFF" fill-rule="nonzero"/></svg><svg width="20" height="20" viewBox="0 0 20 20" id="L1VzZXJzL2t1a2tvbWFoL3Byb2plY3RzL2l0YWxvbi9zcmMvaW1hZ2VzL3Nwcml0ZS1pbnN0LnN2Zw==" x="467" y="255" xmlns="http://www.w3.org/2000/svg"><path d="M12.047 10.167c0-1.04-.828-1.885-1.845-1.885-1.018 0-1.846.846-1.846 1.885 0 1.04.828 1.885 1.846 1.885 1.017 0 1.845-.845 1.845-1.885zm2.6 0c0 2.505-1.994 4.542-4.445 4.542-2.452 0-4.446-2.037-4.446-4.542 0-.69.152-1.343.422-1.93H.742v6.545c0 2.636 2.1 4.781 4.68 4.781h9.367c2.58 0 4.68-2.145 4.68-4.781V8.238h-5.244c.27.586.422 1.24.422 1.93zm-.61-6.908c0-.292.235-.531.52-.531h1.607c.287 0 .52.239.52.531v1.642a.527.527 0 0 1-.52.53h-1.606a.527.527 0 0 1-.52-.53V3.259zm-3.835 2.367c.958 0 1.846.312 2.572.84h6.695V5.136c0-2.637-2.1-4.782-4.68-4.782H5.423C2.842.353.743 2.498.743 5.135v1.332h6.886a4.356 4.356 0 0 1 2.573-.841z" fill="#FFF" fill-rule="nonzero"/></svg><svg width="19" height="24" viewBox="0 0 19 24" id="L1VzZXJzL2t1a2tvbWFoL3Byb2plY3RzL2l0YWxvbi9zcmMvaW1hZ2VzL3Nwcml0ZS1sZWZ0LnN2Zw==" x="451" y="178" xmlns="http://www.w3.org/2000/svg"><path d="M3.608 12.854h15.128v-1.92H3.762l9.575-9.576L11.98 0 1.367 10.613l-.013-.013-1.358 1.358.013.012-.013.013 1.358 1.358.013-.013 10.612 10.613 1.358-1.358-9.73-9.73z" fill="#FFF" fill-rule="nonzero"/></svg><svg width="19" height="24" viewBox="0 0 19 24" id="L1VzZXJzL2t1a2tvbWFoL3Byb2plY3RzL2l0YWxvbi9zcmMvaW1hZ2VzL3Nwcml0ZS1yaWdodC5zdmc=" x="470" y="178" xmlns="http://www.w3.org/2000/svg"><path d="M15.392 12.854H.264v-1.92h14.974L5.663 1.357 7.02 0l10.612 10.613.013-.013 1.358 1.358-.013.012.013.013-1.358 1.358-.013-.013L7.021 23.941l-1.358-1.358 9.73-9.73z" fill="#FFF" fill-rule="nonzero"/></svg><svg width="15" height="15" viewBox="0 0 15 15" id="L1VzZXJzL2t1a2tvbWFoL3Byb2plY3RzL2l0YWxvbi9zcmMvbW9kdWxlcy9jYXRhbG9nU2lkZWJhci9zcHJpdGUtY2xvc2Uuc3Zn" x="474" y="221" xmlns="http://www.w3.org/2000/svg"><path d="M9.754 7.5l4.883 4.883-2.254 2.254L7.5 9.754l-4.883 4.883-2.254-2.254L5.246 7.5.363 2.617 2.617.363 7.5 5.246 12.383.363l2.254 2.254L9.754 7.5z" fill="#000" fill-rule="evenodd"/></svg><svg width="21" height="18" viewBox="0 0 21 18" id="L1VzZXJzL2t1a2tvbWFoL3Byb2plY3RzL2l0YWxvbi9zcmMvbW9kdWxlcy9jYXRhbG9nU2lkZWJhci9zcHJpdGUtZmlsdGVycy5zdmc=" x="451" y="237" xmlns="http://www.w3.org/2000/svg"><path d="M11.525 4.218V.06H9.352v4.204A2.916 2.916 0 0 0 7.57 6.943c0 1.2.736 2.234 1.782 2.68v8.317h2.173V9.668a2.916 2.916 0 0 0 1.905-2.725c0-1.247-.795-2.31-1.905-2.725zM10.5 7.696a.756.756 0 0 1-.757-.753c0-.415.34-.752.757-.752s.757.337.757.752-.34.753-.757.753zm8.52.682V.06H16.85v8.272a2.916 2.916 0 0 0-1.905 2.725c0 1.247.794 2.31 1.905 2.725v4.158h2.172v-4.204a2.916 2.916 0 0 0 1.782-2.679 2.917 2.917 0 0 0-1.782-2.68zm-1.147 3.431a.756.756 0 0 1-.757-.752c0-.415.34-.753.757-.753.418 0 .757.338.757.753s-.339.752-.757.752zM4.275 8.378V.06H2.102v8.272a2.916 2.916 0 0 0-1.905 2.725c0 1.247.794 2.31 1.905 2.725v4.158h2.173v-4.204a2.916 2.916 0 0 0 1.781-2.679 2.918 2.918 0 0 0-1.781-2.68zm-1.148 3.431a.756.756 0 0 1-.757-.752c0-.415.34-.753.757-.753s.757.338.757.753-.34.752-.757.752z" fill="#000" fill-rule="nonzero"/></svg><svg width="9" height="2" viewBox="0 0 9 2" id="L1VzZXJzL2t1a2tvbWFoL3Byb2plY3RzL2l0YWxvbi9zcmMvbW9kdWxlcy9jYXRhbG9nU2lkZWJhci9zcHJpdGUtbGluZS5zdmc=" x="481" y="73" xmlns="http://www.w3.org/2000/svg"><path d="M0 0h9v2H0z" fill="#000" fill-rule="evenodd"/></svg><svg width="32" height="32" viewBox="0 0 32 32" id="L1VzZXJzL2t1a2tvbWFoL3Byb2plY3RzL2l0YWxvbi9zcmMvbW9kdWxlcy9mb290ZXIvc3ByaXRlLWNhbGwuc3Zn" x="451" y="39" xmlns="http://www.w3.org/2000/svg"><g fill="#FFF" fill-rule="nonzero"><path d="M16.251 0C7.592 0 .565 7.027.565 15.686c0 8.66 7.027 15.687 15.686 15.687 3.514 0 6.902-1.193 9.663-3.326v1.569h1.38v-4.141h-4.141v1.38h2.133c-2.572 2.07-5.71 3.2-8.972 3.2-7.969 0-14.432-6.463-14.432-14.369S8.345 1.38 16.251 1.38 30.62 7.78 30.62 15.686c0 3.138-1.004 6.087-2.887 8.596l1.067.816a15.575 15.575 0 0 0 3.137-9.412C32 7.027 24.91 0 16.251 0z"/><path d="M14.18 8.282a2.383 2.383 0 0 0-2.384 2.385v10.102a2.383 2.383 0 0 0 2.384 2.384h4.204a2.383 2.383 0 0 0 2.385-2.384V10.667a2.383 2.383 0 0 0-2.385-2.385H14.18zm5.208 2.385v10.102a.991.991 0 0 1-1.004 1.004H14.18a.991.991 0 0 1-1.004-1.004V10.667a.991.991 0 0 1 1.004-1.004h4.204c.502 0 1.004.439 1.004 1.004z"/><circle cx="16.251" cy="20.016" r="1"/></g></svg><svg width="451" height="435" viewBox="0 0 451 435" id="L1VzZXJzL2t1a2tvbWFoL3Byb2plY3RzL2l0YWxvbi9zcmMvbW9kdWxlcy9mcm9udENhcmRzL3Nwcml0ZS1iZy5zdmc=" xmlns="http://www.w3.org/2000/svg"><path d="M282.201 434.724L.31 222.303 103.84.115l346.94 115.881z" fill="#000" fill-rule="evenodd" opacity=".1"/></svg><svg width="25" height="25" viewBox="0 0 25 25" id="L1VzZXJzL2t1a2tvbWFoL3Byb2plY3RzL2l0YWxvbi9zcmMvbW9kdWxlcy9oZWFkZXIvc3ByaXRlLW1lbnUtY2xvc2Uuc3Zn" x="451" y="153" xmlns="http://www.w3.org/2000/svg"><path d="M12.5 9.756L22.088.168l2.744 2.744-9.588 9.588 9.588 9.588-2.744 2.744-9.588-9.588-9.588 9.588-2.744-2.744L9.756 12.5.168 2.912 2.912.168 12.5 9.756z" fill="#000" fill-rule="evenodd"/></svg><svg width="31" height="24" viewBox="0 0 31 24" id="L1VzZXJzL2t1a2tvbWFoL3Byb2plY3RzL2l0YWxvbi9zcmMvbW9kdWxlcy9oZWFkZXIvc3ByaXRlLW1lbnUuc3Zn" x="451" y="102" xmlns="http://www.w3.org/2000/svg"><g fill="#000" fill-rule="evenodd"><path d="M0 0h31v3.88H0zM0 10h31v3.88H0zM0 20h31v3.88H0z"/></g></svg><svg width="7" height="5" viewBox="0 0 7 5" id="L1VzZXJzL2t1a2tvbWFoL3Byb2plY3RzL2l0YWxvbi9zcmMvbW9kdWxlcy9oZWFkZXIvc3ByaXRlLWJvdHRvbS5zdmc=" x="483" y="56" xmlns="http://www.w3.org/2000/svg"><path d="M-.009 1.32L1.245.009l2.21 2.295L5.664.01l1.254 1.31-3.463 3.6z" fill="#000" fill-rule="nonzero"/></svg><svg width="7" height="5" viewBox="0 0 7 5" id="L1VzZXJzL2t1a2tvbWFoL3Byb2plY3RzL2l0YWxvbi9zcmMvbW9kdWxlcy9oZWFkZXIvc3ByaXRlLWJvdHRvbi13aGl0ZS5zdmc=" x="483" y="51" xmlns="http://www.w3.org/2000/svg"><path d="M0 1.335L1.267 0 3.5 2.338 5.733 0 7 1.335 3.5 5z" fill="#FFF" fill-rule="nonzero"/></svg><svg width="30" height="31" viewBox="0 0 30 31" id="L1VzZXJzL2t1a2tvbWFoL3Byb2plY3RzL2l0YWxvbi9zcmMvbW9kdWxlcy9oZWFkZXIvc3ByaXRlLWNhcnQtYmxhY2suc3Zn" x="451" y="71" xmlns="http://www.w3.org/2000/svg"><g fill="#000" fill-rule="nonzero"><path d="M20.019 30.568a4.5 4.5 0 1 1 4.5-4.5 4.508 4.508 0 0 1-4.5 4.5zm0-5.761a1.257 1.257 0 1 0 0 2.513 1.257 1.257 0 0 0 0-2.513zM.81 26.068a4.5 4.5 0 1 1 4.5 4.5 4.508 4.508 0 0 1-4.5-4.5zm5.762 0a1.257 1.257 0 1 0-1.257 1.256 1.26 1.26 0 0 0 1.24-1.256h.017z"/><path d="M23.514.243h6.113v3.243H26.12l-3.823 17.482H1.33L.373 6.96h21.665L23.514.243zm-19.67 9.961l.514 7.52h15.316l1.654-7.52H3.843z"/></g></svg><svg width="26" height="27" viewBox="0 0 26 27" id="L1VzZXJzL2t1a2tvbWFoL3Byb2plY3RzL2l0YWxvbi9zcmMvbW9kdWxlcy9oZWFkZXIvc3ByaXRlLWNhcnQuc3Zn" x="451" y="126" xmlns="http://www.w3.org/2000/svg"><g fill="#FFF" fill-rule="nonzero"><path d="M17.35 26.492a3.9 3.9 0 1 1 3.9-3.9 3.907 3.907 0 0 1-3.9 3.9zm0-4.993a1.09 1.09 0 1 0 0 2.179 1.09 1.09 0 0 0 0-2.179zM.703 22.592a3.9 3.9 0 1 1 3.9 3.9 3.907 3.907 0 0 1-3.9-3.9zm4.992 0a1.09 1.09 0 1 0-1.089 1.09 1.093 1.093 0 0 0 1.075-1.09h.014z"/><path d="M20.378.21h5.299v2.812h-3.04l-3.313 15.15H1.152L.323 6.032H19.1L20.38.212zM3.331 8.845l.446 6.517h13.274l1.434-6.517H3.33z"/></g></svg><svg width="9" height="2" viewBox="0 0 9 2" id="L1VzZXJzL2t1a2tvbWFoL3Byb2plY3RzL2l0YWxvbi9zcmMvbW9kdWxlcy9oZWFkZXIvc3ByaXRlLWxpbmUuc3Zn" x="481" y="71" xmlns="http://www.w3.org/2000/svg"><path d="M0 0h9v2H0z" fill="#FFF" fill-rule="evenodd"/></svg><svg width="16" height="20" viewBox="0 0 16 20" id="L1VzZXJzL2t1a2tvbWFoL3Byb2plY3RzL2l0YWxvbi9zcmMvbW9kdWxlcy9oZWFkZXIvc3ByaXRlLXBob25lLnN2Zw==" x="451" y="255" xmlns="http://www.w3.org/2000/svg"><path d="M16 20H0V0h16v20zm-3-3V3H3v14h10zm-6.5-2v-3h3v3h-3z" fill="#000" fill-rule="evenodd"/></svg><svg width="5" height="7" viewBox="0 0 5 7" id="L1VzZXJzL2t1a2tvbWFoL3Byb2plY3RzL2l0YWxvbi9zcmMvbW9kdWxlcy9oZWFkZXIvc3ByaXRlLXJpZ2h0LnN2Zw==" x="483" y="39" xmlns="http://www.w3.org/2000/svg"><path d="M1.31 6.927L0 5.673l2.295-2.21L0 1.255 1.31 0l3.6 3.464z" fill="#FFF" fill-rule="nonzero"/></svg><svg width="16" height="16" viewBox="0 0 16 16" id="L1VzZXJzL2t1a2tvbWFoL3Byb2plY3RzL2l0YWxvbi9zcmMvbW9kdWxlcy9wcm9kdWN0SW5mby9zcHJpdGUtY2F0YWxvZy5zdmc=" x="474" y="202" xmlns="http://www.w3.org/2000/svg"><path d="M0 0h16v16H0V0zm13.6 8.913V2.4H2.4v10.4L10 5.415l3.6 3.498zm0 3.561L10.131 8.8 5.6 13.6h8v-1.126zM4 5.6a1.6 1.6 0 1 1 3.2 0 1.6 1.6 0 0 1-3.2 0z" fill="#000" fill-rule="evenodd"/></svg><svg width="17" height="17" viewBox="0 0 17 17" id="L1VzZXJzL2t1a2tvbWFoL3Byb2plY3RzL2l0YWxvbi9zcmMvbW9kdWxlcy9wcm9kdWN0SW5mby9zcHJpdGUtc29sdXRpb25zLnN2Zw==" x="451" y="287" xmlns="http://www.w3.org/2000/svg"><path d="M17 17H0V5.508L8.5.002 17 5.508V17zM14.45 6.895L8.5 3.04 2.55 6.895v7.555h11.9V6.895z" fill="#000" fill-rule="evenodd"/></svg><svg width="14" height="19" viewBox="0 0 14 19" id="L1VzZXJzL2t1a2tvbWFoL3Byb2plY3RzL2l0YWxvbi9zcmMvbW9kdWxlcy9wcm9kdWN0SW5mby9zcHJpdGUtdmlkZW8uc3Zn" x="476" y="153" xmlns="http://www.w3.org/2000/svg"><path d="M2 3l9 6.127-9 6.146z" stroke="#000" stroke-width="3" fill="none" fill-rule="evenodd" stroke-linecap="square"/></svg><svg width="18" height="12" viewBox="0 0 18 12" id="L1VzZXJzL2t1a2tvbWFoL3Byb2plY3RzL2l0YWxvbi9zcmMvbW9kdWxlcy9wcm9kdWN0U2xpZGVyL3Nwcml0ZS11cC5zdmc=" x="451" y="275" xmlns="http://www.w3.org/2000/svg"><path d="M18 9.357L15.45 12 8.995 5.293 2.551 12 0 9.357 7.725 1.33 8.996 0l1.28 1.33z" fill="#000" fill-rule="nonzero" opacity=".2"/></svg><svg width="18" height="12" viewBox="0 0 18 12" id="L1VzZXJzL2t1a2tvbWFoL3Byb2plY3RzL2l0YWxvbi9zcmMvbW9kdWxlcy9wcm9kdWN0U2xpZGVyL3Nwcml0ZS1kb3duLnN2Zw==" x="469" y="275" xmlns="http://www.w3.org/2000/svg"><path d="M18 2.643L15.45 0 8.995 6.707 2.551 0 0 2.643l7.725 8.027L8.996 12l1.28-1.33z" fill="#000" fill-rule="nonzero" opacity=".2"/></svg><svg width="17" height="18" viewBox="0 0 17 18" id="L1VzZXJzL2t1a2tvbWFoL3Byb2plY3RzL2l0YWxvbi9zcmMvbW9kdWxlcy9wcm9kdWN0UHJpbWFyeS9zcHJpdGUtY2FydC5zdmc=" x="472" y="237" xmlns="http://www.w3.org/2000/svg"><g fill="#FFF" fill-rule="nonzero"><path d="M11.344 17.322a2.55 2.55 0 1 1 0-5.1 2.55 2.55 0 0 1 0 5.1zm0-3.265a.712.712 0 1 0 0 1.424.712.712 0 0 0 0-1.424zM.46 14.772a2.55 2.55 0 1 1 5.1 0 2.55 2.55 0 0 1-5.1 0zm3.264 0a.712.712 0 1 0-.712.712.714.714 0 0 0 .703-.712h.009zM13.324.138h3.465v1.838H14.8l-2.166 9.906H.754L.21 3.944h12.277l.836-3.806zM2.178 5.782l.292 4.262h8.679l.937-4.262H2.178z"/></g></svg><svg width="39" height="39" viewBox="0 0 39 39" id="L1VzZXJzL2t1a2tvbWFoL3Byb2plY3RzL2l0YWxvbi9zcmMvbW9kdWxlcy9wcm9qZWN0cy9zcHJpdGUtcGx1cy5zdmc=" x="451" xmlns="http://www.w3.org/2000/svg"><g fill="none" fill-rule="evenodd"><circle fill="#FFF" cx="19.5" cy="19.5" r="19.5"/><path d="M19 19v-8h2v8h8v2h-8v8h-2v-8h-8v-2h8z" fill="#000"/></g></svg></svg>