<?xml version="1.0" encoding="UTF-8"?>
<svg width="32px" height="32px" viewBox="0 0 32 32" version="1.1" xmlns="http://www.w3.org/2000/svg" xmlns:xlink="http://www.w3.org/1999/xlink">
    <!-- Generator: Sketch 50 (54983) - http://www.bohemiancoding.com/sketch -->
    <title>noun_Callback_221171_000000 (2)</title>
    <desc>Created with Sketch.</desc>
    <defs></defs>
    <g id="Page-1" stroke="none" stroke-width="1" fill="none" fill-rule="evenodd">
        <g id="каталог" transform="translate(-1261.000000, -1926.000000)" fill="#FFFFFF" fill-rule="nonzero">
            <g id="подвал" transform="translate(-550.000000, 1548.000000)">
                <g id="noun_Callback_221171_000000-(2)" transform="translate(1811.000000, 378.000000)">
                    <path d="M16.2509804,0 C7.59215686,0 0.564705882,7.02745098 0.564705882,15.6862745 C0.564705882,24.345098 7.59215686,31.372549 16.2509804,31.372549 C19.7647059,31.372549 23.1529412,30.1803922 25.9137255,28.0470588 L25.9137255,29.6156863 L27.2941176,29.6156863 L27.2941176,25.4745098 L23.1529412,25.4745098 L23.1529412,26.854902 L25.2862745,26.854902 C22.7137255,28.9254902 19.5764706,30.054902 16.3137255,30.054902 C8.34509804,30.054902 1.88235294,23.5921569 1.88235294,15.6862745 C1.88235294,7.78039216 8.34509804,1.38039216 16.2509804,1.38039216 C24.1568627,1.38039216 30.6196078,7.78039216 30.6196078,15.6862745 C30.6196078,18.8235294 29.6156863,21.772549 27.7333333,24.2823529 L28.8,25.0980392 C30.8705882,22.3372549 31.9372549,19.0745098 31.9372549,15.6862745 C32,7.02745098 24.9098039,0 16.2509804,0 Z" id="Shape"></path>
                    <path d="M14.1803922,8.28235294 C12.8627451,8.28235294 11.7960784,9.34901961 11.7960784,10.6666667 L11.7960784,20.7686275 C11.7960784,22.0862745 12.8627451,23.1529412 14.1803922,23.1529412 L18.3843137,23.1529412 C19.7019608,23.1529412 20.7686275,22.0862745 20.7686275,20.7686275 L20.7686275,10.6666667 C20.7686275,9.34901961 19.7019608,8.28235294 18.3843137,8.28235294 L14.1803922,8.28235294 Z M19.3882353,10.6666667 L19.3882353,20.7686275 C19.3882353,21.3333333 18.9490196,21.772549 18.3843137,21.772549 L14.1803922,21.772549 C13.6156863,21.772549 13.1764706,21.3333333 13.1764706,20.7686275 L13.1764706,10.6666667 C13.1764706,10.1019608 13.6156863,9.6627451 14.1803922,9.6627451 L18.3843137,9.6627451 C18.8862745,9.6627451 19.3882353,10.1019608 19.3882353,10.6666667 Z" id="Shape"></path>
                    <circle id="Oval" cx="16.2509804" cy="20.0156863" r="1"></circle>
                </g>
            </g>
        </g>
    </g>
</svg>