<?xml version="1.0" encoding="UTF-8"?><svg width="119" height="87" viewBox="0 0 119 87" xmlns="http://www.w3.org/2000/svg" xmlns:xlink="http://www.w3.org/1999/xlink"><svg width="23" height="16" viewBox="0 0 23 16" id="L1VzZXJzL2t1a2tvbWFoL3Byb2plY3RzL2l0YWxvbi9zcmMvaW1hZ2VzL3Nwcml0ZS12ay5zdmc=" x="19" y="63" xmlns="http://www.w3.org/2000/svg"><path d="M.125 1.608c-.152-.927 4.333-.353 4.333-.353s2.604 6.536 3.63 6.536c1.026 0 .532-5.542.532-5.542s-1.273-.331-1.273-.84C7.347.903 8.62.55 8.62.55h3.744c.449 0 .627.728.627 1.214v5.94h1.027s.913-1.468 1.634-2.959c.72-1.491 1.597-3.489 1.597-3.489H21.6s.798.022.703.685c-.13.901-3.025 5.181-3.63 6.646-.456 1.104 1.916 2.599 2.927 4.196.656 1.036.703 2.252.703 2.252h-5.17l-2.584-3.003s-.532-.22-.95.088c-.419.31-.438.928-.438.928v1.987H9.114s-3.098-1.06-5.72-5.697C.77 4.7.277 2.536.124 1.608z" fill="#FFF" fill-rule="nonzero"/></svg><svg width="11" height="21" viewBox="0 0 11 21" id="L1VzZXJzL2t1a2tvbWFoL3Byb2plY3RzL2l0YWxvbi9zcmMvaW1hZ2VzL3Nwcml0ZS1mYi5zdmc=" x="88" xmlns="http://www.w3.org/2000/svg"><path d="M2.525 20.656H6.92l-.036-10.24h2.93l.372-3.547H6.92V4.707s0-.575.329-.79c.328-.215.707-.235.707-.235h2.23V.134H7.134c-1.12 0-2.384.348-3.023.749-1.48.928-1.586 3.131-1.586 3.131V6.87H.323v3.505h2.202v10.282z" fill="#FFF" fill-rule="nonzero"/></svg><svg width="20" height="20" viewBox="0 0 20 20" id="L1VzZXJzL2t1a2tvbWFoL3Byb2plY3RzL2l0YWxvbi9zcmMvaW1hZ2VzL3Nwcml0ZS1pbnN0LnN2Zw==" x="99" xmlns="http://www.w3.org/2000/svg"><path d="M12.047 10.167c0-1.04-.828-1.885-1.845-1.885-1.018 0-1.846.846-1.846 1.885 0 1.04.828 1.885 1.846 1.885 1.017 0 1.845-.845 1.845-1.885zm2.6 0c0 2.505-1.994 4.542-4.445 4.542-2.452 0-4.446-2.037-4.446-4.542 0-.69.152-1.343.422-1.93H.742v6.545c0 2.636 2.1 4.781 4.68 4.781h9.367c2.58 0 4.68-2.145 4.68-4.781V8.238h-5.244c.27.586.422 1.24.422 1.93zm-.61-6.908c0-.292.235-.531.52-.531h1.607c.287 0 .52.239.52.531v1.642a.527.527 0 0 1-.52.53h-1.606a.527.527 0 0 1-.52-.53V3.259zm-3.835 2.367c.958 0 1.846.312 2.572.84h6.695V5.136c0-2.637-2.1-4.782-4.68-4.782H5.423C2.842.353.743 2.498.743 5.135v1.332h6.886a4.356 4.356 0 0 1 2.573-.841z" fill="#FFF" fill-rule="nonzero"/></svg><svg width="32" height="32" viewBox="0 0 32 32" id="L1VzZXJzL2t1a2tvbWFoL3Byb2plY3RzL2l0YWxvbi9zcmMvbW9kdWxlcy9mb290ZXIvc3ByaXRlLWNhbGwuc3Zn" xmlns="http://www.w3.org/2000/svg"><g fill="#FFF" fill-rule="nonzero"><path d="M16.251 0C7.592 0 .565 7.027.565 15.686c0 8.66 7.027 15.687 15.686 15.687 3.514 0 6.902-1.193 9.663-3.326v1.569h1.38v-4.141h-4.141v1.38h2.133c-2.572 2.07-5.71 3.2-8.972 3.2-7.969 0-14.432-6.463-14.432-14.369S8.345 1.38 16.251 1.38 30.62 7.78 30.62 15.686c0 3.138-1.004 6.087-2.887 8.596l1.067.816a15.575 15.575 0 0 0 3.137-9.412C32 7.027 24.91 0 16.251 0z"/><path d="M14.18 8.282a2.383 2.383 0 0 0-2.384 2.385v10.102a2.383 2.383 0 0 0 2.384 2.384h4.204a2.383 2.383 0 0 0 2.385-2.384V10.667a2.383 2.383 0 0 0-2.385-2.385H14.18zm5.208 2.385v10.102a.991.991 0 0 1-1.004 1.004H14.18a.991.991 0 0 1-1.004-1.004V10.667a.991.991 0 0 1 1.004-1.004h4.204c.502 0 1.004.439 1.004 1.004z"/><circle cx="16.251" cy="20.016" r="1"/></g></svg><svg width="19" height="24" viewBox="0 0 19 24" id="L1VzZXJzL2t1a2tvbWFoL3Byb2plY3RzL2l0YWxvbi9zcmMvbW9kdWxlcy9mcm9udFNsaWRlci9zcHJpdGUtbGVmdC5zdmc=" x="63" y="25" xmlns="http://www.w3.org/2000/svg"><path d="M3.608 12.854h15.128v-1.92H3.762l9.575-9.576L11.98 0 1.367 10.613l-.013-.013-1.358 1.358.013.012-.013.013 1.358 1.358.013-.013 10.612 10.613 1.358-1.358-9.73-9.73z" fill="#FFF" fill-rule="nonzero"/></svg><svg width="19" height="24" viewBox="0 0 19 24" id="L1VzZXJzL2t1a2tvbWFoL3Byb2plY3RzL2l0YWxvbi9zcmMvbW9kdWxlcy9mcm9udFNsaWRlci9zcHJpdGUtcmlnaHQuc3Zn" y="63" xmlns="http://www.w3.org/2000/svg"><path d="M15.392 12.854H.264v-1.92h14.974L5.663 1.357 7.02 0l10.612 10.613.013-.013 1.358 1.358-.013.012.013.013-1.358 1.358-.013-.013L7.021 23.941l-1.358-1.358 9.73-9.73z" fill="#FFF" fill-rule="nonzero"/></svg><svg width="25" height="25" viewBox="0 0 25 25" id="L1VzZXJzL2t1a2tvbWFoL3Byb2plY3RzL2l0YWxvbi9zcmMvbW9kdWxlcy9oZWFkZXIvc3ByaXRlLW1lbnUtY2xvc2Uuc3Zn" x="63" xmlns="http://www.w3.org/2000/svg"><path d="M12.5 9.756L22.088.168l2.744 2.744-9.588 9.588 9.588 9.588-2.744 2.744-9.588-9.588-9.588 9.588-2.744-2.744L9.756 12.5.168 2.912 2.912.168 12.5 9.756z" fill="#000" fill-rule="evenodd"/></svg><svg width="31" height="24" viewBox="0 0 31 24" id="L1VzZXJzL2t1a2tvbWFoL3Byb2plY3RzL2l0YWxvbi9zcmMvbW9kdWxlcy9oZWFkZXIvc3ByaXRlLW1lbnUuc3Zn" x="32" xmlns="http://www.w3.org/2000/svg"><g fill="#000" fill-rule="evenodd"><path d="M0 0h31v3.88H0zM0 10h31v3.88H0zM0 20h31v3.88H0z"/></g></svg><svg width="7" height="5" viewBox="0 0 7 5" id="L1VzZXJzL2t1a2tvbWFoL3Byb2plY3RzL2l0YWxvbi9zcmMvbW9kdWxlcy9oZWFkZXIvc3ByaXRlLWJvdHRvbS5zdmc=" x="99" y="42" xmlns="http://www.w3.org/2000/svg"><path d="M-.009 1.32L1.245.009l2.21 2.295L5.664.01l1.254 1.31-3.463 3.6z" fill="#000" fill-rule="nonzero"/></svg><svg width="7" height="5" viewBox="0 0 7 5" id="L1VzZXJzL2t1a2tvbWFoL3Byb2plY3RzL2l0YWxvbi9zcmMvbW9kdWxlcy9oZWFkZXIvc3ByaXRlLWJvdHRvbi13aGl0ZS5zdmc=" x="106" y="42" xmlns="http://www.w3.org/2000/svg"><path d="M0 1.335L1.267 0 3.5 2.338 5.733 0 7 1.335 3.5 5z" fill="#FFF" fill-rule="nonzero"/></svg><svg width="30" height="31" viewBox="0 0 30 31" id="L1VzZXJzL2t1a2tvbWFoL3Byb2plY3RzL2l0YWxvbi9zcmMvbW9kdWxlcy9oZWFkZXIvc3ByaXRlLWNhcnQtYmxhY2suc3Zn" y="32" xmlns="http://www.w3.org/2000/svg"><g fill="#000" fill-rule="nonzero"><path d="M20.019 30.568a4.5 4.5 0 1 1 4.5-4.5 4.508 4.508 0 0 1-4.5 4.5zm0-5.761a1.257 1.257 0 1 0 0 2.513 1.257 1.257 0 0 0 0-2.513zM.81 26.068a4.5 4.5 0 1 1 4.5 4.5 4.508 4.508 0 0 1-4.5-4.5zm5.762 0a1.257 1.257 0 1 0-1.257 1.256 1.26 1.26 0 0 0 1.24-1.256h.017z"/><path d="M23.514.243h6.113v3.243H26.12l-3.823 17.482H1.33L.373 6.96h21.665L23.514.243zm-19.67 9.961l.514 7.52h15.316l1.654-7.52H3.843z"/></g></svg><svg width="26" height="27" viewBox="0 0 26 27" id="L1VzZXJzL2t1a2tvbWFoL3Byb2plY3RzL2l0YWxvbi9zcmMvbW9kdWxlcy9oZWFkZXIvc3ByaXRlLWNhcnQuc3Zn" x="30" y="32" xmlns="http://www.w3.org/2000/svg"><g fill="#FFF" fill-rule="nonzero"><path d="M17.35 26.492a3.9 3.9 0 1 1 3.9-3.9 3.907 3.907 0 0 1-3.9 3.9zm0-4.993a1.09 1.09 0 1 0 0 2.179 1.09 1.09 0 0 0 0-2.179zM.703 22.592a3.9 3.9 0 1 1 3.9 3.9 3.907 3.907 0 0 1-3.9-3.9zm4.992 0a1.09 1.09 0 1 0-1.089 1.09 1.093 1.093 0 0 0 1.075-1.09h.014z"/><path d="M20.378.21h5.299v2.812h-3.04l-3.313 15.15H1.152L.323 6.032H19.1L20.38.212zM3.331 8.845l.446 6.517h13.274l1.434-6.517H3.33z"/></g></svg><svg width="9" height="2" viewBox="0 0 9 2" id="L1VzZXJzL2t1a2tvbWFoL3Byb2plY3RzL2l0YWxvbi9zcmMvbW9kdWxlcy9oZWFkZXIvc3ByaXRlLWxpbmUuc3Zn" x="99" y="40" xmlns="http://www.w3.org/2000/svg"><path d="M0 0h9v2H0z" fill="#FFF" fill-rule="evenodd"/></svg><svg width="16" height="20" viewBox="0 0 16 20" id="L1VzZXJzL2t1a2tvbWFoL3Byb2plY3RzL2l0YWxvbi9zcmMvbW9kdWxlcy9oZWFkZXIvc3ByaXRlLXBob25lLnN2Zw==" x="99" y="20" xmlns="http://www.w3.org/2000/svg"><path d="M16 20H0V0h16v20zm-3-3V3H3v14h10zm-6.5-2v-3h3v3h-3z" fill="#000" fill-rule="evenodd"/></svg><svg width="5" height="7" viewBox="0 0 5 7" id="L1VzZXJzL2t1a2tvbWFoL3Byb2plY3RzL2l0YWxvbi9zcmMvbW9kdWxlcy9oZWFkZXIvc3ByaXRlLXJpZ2h0LnN2Zw==" x="99" y="47" xmlns="http://www.w3.org/2000/svg"><path d="M1.31 6.927L0 5.673l2.295-2.21L0 1.255 1.31 0l3.6 3.464z" fill="#FFF" fill-rule="nonzero"/></svg></svg>