<?xml version="1.0" encoding="UTF-8"?>
<svg width="17px" height="18px" viewBox="0 0 17 18" version="1.1" xmlns="http://www.w3.org/2000/svg" xmlns:xlink="http://www.w3.org/1999/xlink">
    <!-- Generator: Sketch 50 (54983) - http://www.bohemiancoding.com/sketch -->
    <title>noun_cart_1226807 (1)</title>
    <desc>Created with Sketch.</desc>
    <defs></defs>
    <g id="Page-1" stroke="none" stroke-width="1" fill="none" fill-rule="evenodd">
        <g id="карточка-товара-copy" transform="translate(-1351.000000, -599.000000)" fill="#FFFFFF" fill-rule="nonzero">
            <g id="Group-15" transform="translate(1329.000000, 581.000000)">
                <g id="Group-6">
                    <g id="noun_cart_1226807-(1)" transform="translate(30.500000, 27.000000) scale(-1, 1) translate(-30.500000, -27.000000) translate(22.000000, 18.000000)">
                        <path d="M5.65594595,17.3216216 C7.06427206,17.3216216 8.20594595,16.1799477 8.20594595,14.7716216 C8.20594595,13.3632955 7.06427206,12.2216216 5.65594595,12.2216216 C4.24761983,12.2216216 3.10594595,13.3632955 3.10594595,14.7716216 C3.10847475,16.1788989 4.24866863,17.3190928 5.65594595,17.3216216 Z M5.65594595,14.0571622 C5.94398865,14.0571622 6.20366882,14.2306749 6.31389799,14.4967917 C6.42412716,14.7629084 6.36319759,15.0692221 6.15952064,15.272899 C5.95584369,15.476576 5.64953005,15.5375055 5.38341329,15.4272764 C5.11729652,15.3170472 4.94378378,15.057367 4.94378378,14.7693243 C4.94504477,14.3765315 5.26315315,14.0584231 5.65594595,14.0571622 Z" id="Shape"></path>
                        <path d="M16.5405405,14.7716216 C16.5405405,13.3632955 15.3988667,12.2216216 13.9905405,12.2216216 C12.5822144,12.2216216 11.4405405,13.3632955 11.4405405,14.7716216 C11.4405405,16.1799477 12.5822144,17.3216216 13.9905405,17.3216216 C15.3978179,17.3190928 16.5380117,16.1788989 16.5405405,14.7716216 Z M13.2760811,14.7716216 C13.2760811,14.3783053 13.5949269,14.0594595 13.9882432,14.0594595 C14.3815595,14.0594595 14.7004054,14.3783053 14.7004054,14.7716216 C14.7004054,15.1649379 14.3815595,15.4837838 13.9882432,15.4837838 C13.5990436,15.4775276 13.2864716,15.1608696 13.2852703,14.7716216 L13.2760811,14.7716216 Z" id="Shape"></path>
                        <path d="M3.67567568,0.137837838 L0.211351351,0.137837838 L0.211351351,1.97567568 L2.19851351,1.97567568 L4.36486486,11.8816216 L16.2464865,11.8816216 L16.7886486,3.94445946 L4.51189189,3.94445946 L3.67567568,0.137837838 Z M14.8221622,5.7822973 L14.5304054,10.0437838 L5.85121622,10.0437838 L4.91391892,5.7822973 L14.8221622,5.7822973 Z" id="Shape"></path>
                    </g>
                </g>
            </g>
        </g>
    </g>
</svg>