<?xml version="1.0" encoding="UTF-8"?>
<svg width="21px" height="18px" viewBox="0 0 21 18" version="1.1" xmlns="http://www.w3.org/2000/svg" xmlns:xlink="http://www.w3.org/1999/xlink">
    <!-- Generator: Sketch 50 (54983) - http://www.bohemiancoding.com/sketch -->
    <title>Shape</title>
    <desc>Created with Sketch.</desc>
    <defs></defs>
    <g id="Page-1" stroke="none" stroke-width="1" fill="none" fill-rule="evenodd">
        <g id="каталог-mobile" transform="translate(-247.000000, -99.000000)" fill="#000000" fill-rule="nonzero">
            <g id="noun_filter_1439177" transform="translate(247.000000, 99.000000)">
                <path d="M11.5246552,4.21812 L11.5246552,0.06048 L9.35224138,0.06048 L9.35224138,4.2642 C8.30586207,4.7088 7.5705,5.742 7.5705,6.94296 C7.5705,8.14392 8.30586207,9.17748 9.35224138,9.62208 L9.35224138,17.93952 L11.5246552,17.93952 L11.5246552,9.66816 C12.6351207,9.2538 13.4295,8.19 13.4295,6.94296 C13.4295,5.69592 12.6351207,4.63248 11.5246552,4.21812 Z M10.5,7.69572 C10.0825345,7.69572 9.74291379,7.35804 9.74291379,6.94296 C9.74291379,6.52824 10.0825345,6.19056 10.5,6.19056 C10.9174655,6.19056 11.2570862,6.52824 11.2570862,6.94296 C11.2570862,7.35804 10.9174655,7.69572 10.5,7.69572 Z M19.020931,8.37756 L19.020931,0.06048 L16.8485172,0.06048 L16.8485172,8.33184 C15.7380517,8.7462 14.9436724,9.81 14.9436724,11.05704 C14.9436724,12.30408 15.7376897,13.36752 16.8485172,13.78188 L16.8485172,17.93952 L19.020931,17.93952 L19.020931,13.7358 C20.0673103,13.2912 20.8026724,12.258 20.8026724,11.05704 C20.8026724,9.85608 20.0673103,8.82252 19.020931,8.37756 Z M17.8731724,11.80944 C17.4557069,11.80944 17.1160862,11.47176 17.1160862,11.05704 C17.1160862,10.64196 17.4557069,10.30428 17.8731724,10.30428 C18.2906379,10.30428 18.6302586,10.64196 18.6302586,11.05704 C18.6302586,11.47176 18.291,11.80944 17.8731724,11.80944 Z M4.27458621,8.37756 L4.27458621,0.06048 L2.10217241,0.06048 L2.10217241,8.33184 C0.991706897,8.7462 0.197327586,9.81 0.197327586,11.05704 C0.197327586,12.30408 0.991344828,13.36752 2.10217241,13.78188 L2.10217241,17.93952 L4.27458621,17.93952 L4.27458621,13.7358 C5.32096552,13.2912 6.05632759,12.258 6.05632759,11.05704 C6.05632759,9.85608 5.32060345,8.82252 4.27458621,8.37756 Z M3.12682759,11.80944 C2.70936207,11.80944 2.36974138,11.47176 2.36974138,11.05704 C2.36974138,10.64196 2.70936207,10.30428 3.12682759,10.30428 C3.5442931,10.30428 3.88391379,10.64196 3.88391379,11.05704 C3.88391379,11.47176 3.5442931,11.80944 3.12682759,11.80944 Z" id="Shape"></path>
            </g>
        </g>
    </g>
</svg>