<?xml version="1.0" encoding="UTF-8"?>
<svg width="26px" height="27px" viewBox="0 0 26 27" version="1.1" xmlns="http://www.w3.org/2000/svg" xmlns:xlink="http://www.w3.org/1999/xlink">
    <!-- Generator: Sketch 50 (54983) - http://www.bohemiancoding.com/sketch -->
    <title>noun_cart_1226807</title>
    <desc>Created with Sketch.</desc>
    <defs></defs>
    <g id="Page-1" stroke="none" stroke-width="1" fill="none" fill-rule="evenodd">
        <g id="index" transform="translate(-1447.000000, -45.000000)" fill="#FFFFFF" fill-rule="nonzero">
            <g id="Group-3" transform="translate(1431.000000, 33.000000)">
                <g id="noun_cart_1226807" transform="translate(29.000000, 25.464286) scale(-1, 1) translate(-29.000000, -25.464286) translate(16.000000, 12.000000)">
                    <path d="M8.65027027,26.4918919 C10.8041808,26.4918919 12.5502703,24.7458024 12.5502703,22.5918919 C12.5502703,20.4379814 10.8041808,18.6918919 8.65027027,18.6918919 C6.49635975,18.6918919 4.75027027,20.4379814 4.75027027,22.5918919 C4.75413786,24.7441984 6.49796379,26.4880243 8.65027027,26.4918919 Z M8.65027027,21.4991892 C9.09080617,21.4991892 9.48796408,21.7645616 9.65654987,22.1715637 C9.82513566,22.5785658 9.73194926,23.0470455 9.42044333,23.3585514 C9.10893741,23.6700574 8.64045772,23.7632438 8.23345561,23.594658 C7.82645351,23.4260722 7.56108108,23.0289143 7.56108108,22.5883784 C7.56300964,21.9876364 8.04952834,21.5011177 8.65027027,21.4991892 Z" id="Shape"></path>
                    <path d="M25.2972973,22.5918919 C25.2972973,20.4379814 23.5512078,18.6918919 21.3972973,18.6918919 C19.2433868,18.6918919 17.4972973,20.4379814 17.4972973,22.5918919 C17.4972973,24.7458024 19.2433868,26.4918919 21.3972973,26.4918919 C23.5496038,26.4880243 25.2934297,24.7441984 25.2972973,22.5918919 Z M20.3045946,22.5918919 C20.3045946,21.9903493 20.7922412,21.5027027 21.3937838,21.5027027 C21.9953264,21.5027027 22.482973,21.9903493 22.482973,22.5918919 C22.482973,23.1934345 21.9953264,23.6810811 21.3937838,23.6810811 C20.7985373,23.6715128 20.320486,23.1872124 20.3186486,22.5918919 L20.3045946,22.5918919 Z" id="Shape"></path>
                    <path d="M5.62162162,0.210810811 L0.323243243,0.210810811 L0.323243243,3.02162162 L3.36243243,3.02162162 L6.67567568,18.1718919 L24.8475676,18.1718919 L25.6767568,6.0327027 L6.90054054,6.0327027 L5.62162162,0.210810811 Z M22.6691892,8.84351351 L22.222973,15.3610811 L8.94891892,15.3610811 L7.51540541,8.84351351 L22.6691892,8.84351351 Z" id="Shape"></path>
                </g>
            </g>
        </g>
    </g>
</svg>