<?xml version="1.0" encoding="UTF-8"?>
<svg width="30px" height="31px" viewBox="0 0 30 31" version="1.1" xmlns="http://www.w3.org/2000/svg" xmlns:xlink="http://www.w3.org/1999/xlink">
    <!-- Generator: Sketch 50 (54983) - http://www.bohemiancoding.com/sketch -->
    <title>noun_cart_1226807</title>
    <desc>Created with Sketch.</desc>
    <defs></defs>
    <g id="Page-1" stroke="none" stroke-width="1" fill="none" fill-rule="evenodd">
        <g id="menu-category" transform="translate(-323.000000, -17.000000)" fill="#000000" fill-rule="nonzero">
            <g id="Group-4">
                <g id="Group-2">
                    <g id="Group-3" transform="translate(323.000000, 17.000000)">
                        <g id="noun_cart_1226807" transform="translate(15.000000, 15.500000) scale(-1, 1) translate(-15.000000, -15.500000) ">
                            <path d="M9.98108108,30.5675676 C12.4663625,30.5675676 14.4810811,28.5528489 14.4810811,26.0675676 C14.4810811,23.5822862 12.4663625,21.5675676 9.98108108,21.5675676 C7.49579971,21.5675676 5.48108108,23.5822862 5.48108108,26.0675676 C5.48554368,28.5509981 7.49765052,30.563105 9.98108108,30.5675676 Z M9.98108108,24.8067568 C10.4893917,24.8067568 10.9476509,25.1129557 11.1421729,25.5825735 C11.336695,26.0521913 11.2291722,26.5927448 10.8697423,26.9521747 C10.5103124,27.3116047 9.96975891,27.4191274 9.50014109,27.2246054 C9.03052328,27.0300833 8.72432432,26.5718242 8.72432432,26.0635135 C8.72654959,25.3703497 9.28791732,24.808982 9.98108108,24.8067568 Z" id="Shape"></path>
                            <path d="M29.1891892,26.0675676 C29.1891892,23.5822862 27.1744706,21.5675676 24.6891892,21.5675676 C22.2039078,21.5675676 20.1891892,23.5822862 20.1891892,26.0675676 C20.1891892,28.5528489 22.2039078,30.5675676 24.6891892,30.5675676 C27.1726197,30.563105 29.1847266,28.5509981 29.1891892,26.0675676 Z M23.4283784,26.0675676 C23.4283784,25.37348 23.9910475,24.8108108 24.6851351,24.8108108 C25.3792227,24.8108108 25.9418919,25.37348 25.9418919,26.0675676 C25.9418919,26.7616552 25.3792227,27.3243243 24.6851351,27.3243243 C23.9983123,27.313284 23.4467146,26.7544758 23.4445946,26.0675676 L23.4283784,26.0675676 Z" id="Shape"></path>
                            <path d="M6.48648649,0.243243243 L0.372972973,0.243243243 L0.372972973,3.48648649 L3.87972973,3.48648649 L7.7027027,20.9675676 L28.6702703,20.9675676 L29.627027,6.96081081 L7.96216216,6.96081081 L6.48648649,0.243243243 Z M26.1567568,10.2040541 L25.6418919,17.7243243 L10.3256757,17.7243243 L8.67162162,10.2040541 L26.1567568,10.2040541 Z" id="Shape"></path>
                        </g>
                    </g>
                </g>
            </g>
        </g>
    </g>
</svg>