<?xml version="1.0" encoding="UTF-8"?>
<svg width="16px" height="16px" viewBox="0 0 16 16" version="1.1" xmlns="http://www.w3.org/2000/svg" xmlns:xlink="http://www.w3.org/1999/xlink">
    <!-- Generator: Sketch 50 (54983) - http://www.bohemiancoding.com/sketch -->
    <title>Shape</title>
    <desc>Created with Sketch.</desc>
    <defs></defs>
    <g id="Page-1" stroke="none" stroke-width="1" fill="none" fill-rule="evenodd">
        <g id="корзина" transform="translate(-1175.000000, -442.000000)" fill="#000000" fill-rule="nonzero">
            <g id="Group-6" transform="translate(1132.000000, 176.000000)">
                <g id="Group-7">
                    <path d="M49.6743363,276.888496 C50.159292,276.40354 50.6442478,275.918584 51.1292035,275.433628 C51.2743363,275.288496 51.4141593,275.134513 51.5752212,275.00885 C51.5044248,275.063717 51.4318584,275.120354 51.3610619,275.175221 C51.4867257,275.079646 51.6230088,274.99823 51.7681416,274.936283 C51.6831858,274.971681 51.5982301,275.00708 51.5150442,275.042478 C51.6725664,274.976991 51.8371681,274.930973 52.0070796,274.907965 C51.9132743,274.920354 51.819469,274.932743 51.7238938,274.945133 C51.8849558,274.925664 52.0460177,274.925664 52.2070796,274.945133 C52.1132743,274.932743 52.019469,274.920354 51.9238938,274.907965 C52.0938053,274.930973 52.2584071,274.975221 52.4159292,275.042478 C52.3309735,275.00708 52.2460177,274.971681 52.1628319,274.936283 C52.3079646,275 52.4442478,275.079646 52.5699115,275.175221 C52.499115,275.120354 52.4265487,275.063717 52.3557522,275.00885 C52.4778761,275.104425 52.5858407,275.212389 52.6814159,275.334513 C52.6265487,275.263717 52.5699115,275.19115 52.5150442,275.120354 C52.6106195,275.246018 52.6920354,275.382301 52.7539823,275.527434 C52.7185841,275.442478 52.6831858,275.357522 52.6477876,275.274336 C52.7132743,275.431858 52.759292,275.59646 52.7823009,275.766372 C52.7699115,275.672566 52.7575221,275.578761 52.7451327,275.483186 C52.7646018,275.644248 52.7646018,275.80531 52.7451327,275.966372 C52.7575221,275.872566 52.7699115,275.778761 52.7823009,275.683186 C52.759292,275.853097 52.7150442,276.017699 52.6477876,276.175221 C52.6831858,276.090265 52.7185841,276.00531 52.7539823,275.922124 C52.6902655,276.067257 52.6106195,276.20354 52.5150442,276.329204 C52.5699115,276.258407 52.6265487,276.185841 52.6814159,276.115044 C52.5610619,276.267257 52.4159292,276.40177 52.2778761,276.538053 C52.0389381,276.776991 51.8,277.015929 51.5610619,277.254867 C51.0318584,277.784071 50.5044248,278.311504 49.9752212,278.840708 C49.7787611,279.037168 49.5858407,279.235398 49.3663717,279.40531 C49.4371681,279.350442 49.5097345,279.293805 49.580531,279.238938 C49.3292035,279.431858 49.0548673,279.59115 48.7628319,279.715044 C48.8477876,279.679646 48.9327434,279.644248 49.0159292,279.60885 C48.7079646,279.738053 48.3840708,279.826549 48.0530973,279.872566 C48.1469027,279.860177 48.240708,279.847788 48.3362832,279.835398 C47.9982301,279.879646 47.6566372,279.879646 47.320354,279.835398 C47.4141593,279.847788 47.5079646,279.860177 47.6035398,279.872566 C47.2725664,279.826549 46.9486726,279.738053 46.640708,279.60885 C46.7256637,279.644248 46.8106195,279.679646 46.8938053,279.715044 C46.6017699,279.59115 46.3292035,279.431858 46.0761062,279.238938 C46.1469027,279.293805 46.219469,279.350442 46.2902655,279.40531 C46.0318584,279.20531 45.8017699,278.975221 45.6017699,278.716814 C45.6566372,278.787611 45.7132743,278.860177 45.7681416,278.930973 C45.5752212,278.679646 45.4159292,278.40531 45.2920354,278.113274 C45.3274336,278.19823 45.3628319,278.283186 45.3982301,278.366372 C45.2690265,278.058407 45.180531,277.734513 45.1345133,277.40354 C45.1469027,277.497345 45.159292,277.59115 45.1716814,277.686726 C45.1274336,277.348673 45.1274336,277.00708 45.1716814,276.670796 C45.159292,276.764602 45.1469027,276.858407 45.1345133,276.953982 C45.180531,276.623009 45.2690265,276.299115 45.3982301,275.99115 C45.3628319,276.076106 45.3274336,276.161062 45.2920354,276.244248 C45.4159292,275.952212 45.5752212,275.679646 45.7681416,275.426549 C45.7132743,275.497345 45.6566372,275.569912 45.6017699,275.640708 C45.8566372,275.311504 46.1716814,275.024779 46.4654867,274.732743 C46.9858407,274.212389 47.5044248,273.693805 48.0247788,273.173451 C48.6654867,272.532743 49.3061947,271.892035 49.9469027,271.251327 C50.4938053,270.704425 51.040708,270.157522 51.5858407,269.612389 C51.8159292,269.382301 52.0442478,269.152212 52.2761062,268.922124 C52.3911504,268.80708 52.5132743,268.700885 52.6424779,268.6 C52.5716814,268.654867 52.499115,268.711504 52.4283186,268.766372 C52.679646,268.573451 52.9539823,268.414159 53.2460177,268.290265 C53.1610619,268.325664 53.0761062,268.361062 52.9929204,268.39646 C53.300885,268.267257 53.6247788,268.178761 53.9557522,268.132743 C53.8619469,268.145133 53.7681416,268.157522 53.6725664,268.169912 C54.0106195,268.125664 54.3522124,268.125664 54.6884956,268.169912 C54.5946903,268.157522 54.500885,268.145133 54.4053097,268.132743 C54.7362832,268.178761 55.060177,268.267257 55.3681416,268.39646 C55.2831858,268.361062 55.1982301,268.325664 55.1150442,268.290265 C55.4070796,268.414159 55.679646,268.573451 55.9327434,268.766372 C55.8619469,268.711504 55.7893805,268.654867 55.7185841,268.6 C55.9769912,268.8 56.2070796,269.030088 56.4070796,269.288496 C56.3522124,269.217699 56.2955752,269.145133 56.240708,269.074336 C56.4336283,269.325664 56.5929204,269.6 56.7168142,269.892035 C56.6814159,269.80708 56.6460177,269.722124 56.6106195,269.638938 C56.739823,269.946903 56.8283186,270.270796 56.8743363,270.60177 C56.8619469,270.507965 56.8495575,270.414159 56.8371681,270.318584 C56.8814159,270.656637 56.8814159,270.99823 56.8371681,271.334513 C56.8495575,271.240708 56.8619469,271.146903 56.8743363,271.051327 C56.8283186,271.382301 56.739823,271.706195 56.6106195,272.014159 C56.6460177,271.929204 56.6814159,271.844248 56.7168142,271.761062 C56.5929204,272.053097 56.4336283,272.325664 56.240708,272.578761 C56.2955752,272.507965 56.3522124,272.435398 56.4070796,272.364602 C56.3079646,272.493805 56.2,272.615929 56.0849558,272.730973 C55.8920354,272.923894 55.7734513,273.20885 55.7734513,273.481416 C55.7734513,273.741593 55.8884956,274.053097 56.0849558,274.231858 C56.2867257,274.417699 56.5522124,274.555752 56.8353982,274.543363 C57.1168142,274.530973 57.3840708,274.435398 57.5858407,274.231858 C57.8371681,273.978761 58.0619469,273.692035 58.2548673,273.39292 C58.4442478,273.097345 58.5876106,272.771681 58.7115044,272.442478 C58.8035398,272.19823 58.8690265,271.945133 58.9097345,271.688496 C58.9628319,271.345133 59.0035398,271.00354 58.9876106,270.656637 C58.9557522,269.945133 58.7787611,269.279646 58.4672566,268.638938 C58.3132743,268.322124 58.1079646,268.044248 57.8920354,267.766372 C57.7256637,267.553982 57.5362832,267.357522 57.3292035,267.185841 C57.0530973,266.955752 56.7663717,266.743363 56.4530973,266.578761 C56.1486726,266.419469 55.8230088,266.284956 55.4920354,266.19115 C55.1557522,266.095575 54.8035398,266.046018 54.4566372,266.021239 C54.1982301,266.00177 53.9380531,266.010619 53.6814159,266.044248 C53.3309735,266.088496 52.9876106,266.141593 52.6530973,266.258407 C52.3274336,266.371681 52.0035398,266.511504 51.7061947,266.688496 C51.3575221,266.897345 51.0336283,267.155752 50.7469027,267.442478 C50.5221239,267.667257 50.299115,267.890265 50.0743363,268.115044 C49.6353982,268.553982 49.1982301,268.99115 48.759292,269.430088 C48.2300885,269.959292 47.700885,270.488496 47.1716814,271.017699 C46.6725664,271.516814 46.1752212,272.014159 45.6761062,272.513274 C45.3362832,272.853097 44.9964602,273.19292 44.6566372,273.532743 C44.2743363,273.915044 43.9097345,274.315044 43.640708,274.79115 C43.4707965,275.092035 43.3345133,275.415929 43.2283186,275.745133 C43.1221239,276.079646 43.0707965,276.428319 43.0336283,276.776991 C43.0053097,277.038938 43.0053097,277.302655 43.0318584,277.564602 C43.0672566,277.909735 43.1168142,278.254867 43.2212389,278.585841 C43.4336283,279.265487 43.7823009,279.870796 44.2513274,280.40354 C44.4849558,280.670796 44.7575221,280.888496 45.040708,281.100885 C45.2548673,281.260177 45.4849558,281.39646 45.7274336,281.506195 C46.0460177,281.651327 46.3699115,281.780531 46.7115044,281.858407 C47.0513274,281.934513 47.4035398,281.980531 47.7522124,281.987611 C48.0973451,281.99469 48.4442478,281.950442 48.7840708,281.890265 C49.0442478,281.842478 49.300885,281.768142 49.5451327,281.667257 C49.8707965,281.532743 50.1840708,281.39469 50.4761062,281.19646 C50.7433628,281.014159 51.0035398,280.810619 51.2336283,280.582301 C51.3345133,280.483186 51.4336283,280.382301 51.5345133,280.281416 C52.0212389,279.79469 52.5097345,279.306195 52.9964602,278.819469 C53.339823,278.476106 53.6831858,278.136283 54.0247788,277.79115 C54.0690265,277.746903 54.1115044,277.700885 54.1522124,277.651327 C54.2884956,277.486726 54.4265487,277.315044 54.5256637,277.123894 C54.7362832,276.722124 54.8389381,276.327434 54.8761062,275.877876 C54.8867257,275.748673 54.8831858,275.619469 54.8690265,275.492035 C54.8442478,275.272566 54.8176991,275.053097 54.7486726,274.842478 C54.6070796,274.419469 54.4,274.063717 54.1026549,273.732743 C53.5823009,273.150442 52.8017699,272.831858 52.0283186,272.80708 C51.8088496,272.8 51.5876106,272.833628 51.3716814,272.870796 C51.2442478,272.892035 51.1185841,272.927434 50.9964602,272.975221 C50.7964602,273.054867 50.5946903,273.134513 50.4141593,273.253097 C50.2336283,273.371681 50.0584071,273.507965 49.9044248,273.660177 C49.5840708,273.976991 49.2672566,274.297345 48.9486726,274.615929 C48.4637168,275.100885 47.9769912,275.587611 47.4920354,276.072566 C47.4035398,276.161062 47.3150442,276.249558 47.2265487,276.338053 C47.0336283,276.530973 46.9150442,276.815929 46.9150442,277.088496 C46.9150442,277.348673 47.0300885,277.660177 47.2265487,277.838938 C47.4283186,278.024779 47.6938053,278.162832 47.9769912,278.150442 C48.2548673,278.138053 48.520354,278.042478 48.7238938,277.838938 C49.040708,277.522124 49.3575221,277.20531 49.6743363,276.888496 Z" id="Shape"></path>
                </g>
            </g>
        </g>
    </g>
</svg>